# xmcd CD database file
#
# Track frame offsets:
#	150
#	139966
#	196374
#
# Disc length: 3340 seconds
#
# Revision: 0
# Processed by: cddbd v1.5.2PL0 Copyright (c) Steve Scherf et al.
# Submitted via: CDex 1.50beta10
#
DISCID=280d0a03
DTITLE=Gustaf Jonsson - Gustaf Jonsson
DYEAR=2002
DGENRE=Jazz
TTITLE0=31.04
TTITLE1=12.32
TTITLE2=12.02
EXTD=YEAR: 2002
EXTT0=
EXTT1=
EXTT2=
PLAYORDER=
